<svg xmlns="http://www.w3.org/2000/svg" xmlns:xlink="http://www.w3.org/1999/xlink" id="Layer_1" x="0" y="0" version="1.1" viewBox="0 0 511.997 511.997" style="enable-background:new 0 0 511.997 511.997" xml:space="preserve"><path style="fill:#4173cd" d="M473.601,423.703H38.34c-21.175,0-38.34-17.165-38.34-38.34V126.634 c0-21.175,17.165-38.34,38.34-38.34h435.261c21.175,0,38.34,17.165,38.34,38.34v258.729 C511.942,406.538,494.776,423.703,473.601,423.703z"/><g><rect x=".057" y="317.789" style="fill:#ffe15a" width="511.94" height="17.653"/><rect x=".057" y="353.099" style="fill:#ffe15a" width="511.94" height="17.653"/></g><polygon style="fill:#ff4b55" points="65.282 175.949 32.438 164.734 65.282 153.519 76.498 120.678 87.713 153.519 120.557 164.734 87.713 175.949 76.498 208.791"/><path style="fill:#f5f5f5" d="M76.498,126.58l9.713,28.441l28.441,9.713l-28.441,9.713l-9.713,28.441l-9.713-28.441l-28.441-9.713 l28.441-9.713L76.498,126.58 M76.498,114.773l-3.611,10.573l-9.107,26.67l-26.67,9.107l-10.573,3.61l10.573,3.61l26.67,9.107 l9.107,26.67l3.611,10.573l3.611-10.573l9.107-26.67l26.67-9.107l10.573-3.61l-10.573-3.61l-26.67-9.107l-9.107-26.669 L76.498,114.773L76.498,114.773z"/></svg>