<svg xmlns="http://www.w3.org/2000/svg" xmlns:xlink="http://www.w3.org/1999/xlink" id="Layer_1" x="0" y="0" version="1.1" viewBox="0 0 512 512" style="enable-background:new 0 0 512 512" xml:space="preserve"><path style="fill:#f5f5f5" d="M38.345,423.724h102.898l70.621-20.966l-70.621-20.966l70.621-20.966l-70.621-20.966l70.621-20.966 l-70.621-20.966l70.621-20.966L141.242,256l70.621-20.966l-70.621-20.966l70.621-20.966l-70.621-20.966l70.621-20.966 l-70.621-20.966l70.621-20.966l-70.621-20.966H38.345C17.167,88.276,0,105.443,0,126.621V385.38 C0,406.557,17.167,423.724,38.345,423.724z"/><path style="fill:#ff4b55" d="M141.241,130.207l70.621,20.966l-70.621,20.966l70.621,20.966l-70.621,20.966l70.621,20.966 L141.241,256l70.621,20.966l-70.621,20.966l70.621,20.966l-70.621,20.966l70.621,20.966l-70.621,20.966l70.621,20.966 l-70.621,20.966h332.414c21.177,0,38.345-17.167,38.345-38.345V126.621c0-21.177-17.167-38.345-38.345-38.345H141.242l70.621,20.966 L141.241,130.207z"/></svg>